<?xml version="1.0" standalone="no"?>
<!DOCTYPE svg PUBLIC "-//W3C//DTD SVG 20010904//EN"
 "http://www.w3.org/TR/2001/REC-SVG-20010904/DTD/svg10.dtd">
<svg version="1.0" xmlns="http://www.w3.org/2000/svg"
 width="623.000000pt" height="401.000000pt" viewBox="0 0 623.000000 401.000000"
 preserveAspectRatio="xMidYMid meet">

<g transform="translate(0.000000,401.000000) scale(0.100000,-0.100000)"
fill="#000000" stroke="none">
<path d="M2594 3204 c-35 -17 -74 -55 -78 -75 -2 -8 -6 -22 -11 -32 -4 -9 -4
-39 0 -65 6 -37 15 -54 47 -84 69 -64 150 -63 217 0 64 61 68 151 10 217 -26
29 -34 33 -51 24 -15 -8 -17 -13 -7 -25 16 -19 4 -30 -15 -15 -8 7 -19 10 -24
7 -5 -3 -7 6 -4 21 3 18 1 24 -7 19 -6 -4 -9 -11 -6 -16 3 -4 -3 -11 -13 -15
-16 -6 -16 -7 2 -21 15 -10 16 -14 5 -15 -8 0 -1 -5 15 -11 22 -8 30 -7 37 3
6 10 8 8 6 -8 0 -12 -4 -20 -8 -17 -4 2 -10 0 -13 -4 -3 -5 3 -9 14 -8 11 0
27 13 34 28 13 24 12 29 -6 48 l-21 22 24 -7 c31 -9 53 -36 38 -46 -8 -5 -8
-12 0 -26 12 -23 6 -33 -21 -33 -13 0 -18 -7 -18 -27 0 -14 -3 -23 -7 -20 -3
4 -12 -2 -20 -13 -9 -12 -26 -20 -44 -20 -16 0 -29 -4 -29 -9 0 -9 30 -25 43
-23 4 1 7 -5 7 -13 0 -14 -22 -16 -45 -4 -5 3 -26 6 -45 8 -19 1 -39 7 -45 13
-7 6 -7 9 0 8 25 -5 45 1 45 14 0 18 16 24 63 22 23 -1 37 4 37 12 0 6 -4 13
-10 13 -13 2 -29 6 -32 9 -16 12 -42 3 -63 -22 -19 -23 -31 -29 -49 -24 -18 4
-23 12 -22 35 1 20 4 26 12 20 7 -6 16 -4 24 6 9 10 9 15 1 15 -6 0 -11 -5
-11 -12 0 -6 -3 -9 -6 -5 -9 9 -10 77 -1 77 4 0 6 4 3 8 -9 15 11 34 38 35 16
1 24 7 22 14 -7 18 27 25 81 18 35 -5 44 -4 33 4 -22 16 -90 13 -126 -5z m183
-173 c0 -11 -5 -17 -9 -15 -11 7 -10 34 1 34 6 0 9 -9 8 -19z m3 -41 c0 -5 -4
-10 -10 -10 -5 0 -10 5 -10 10 0 6 5 10 10 10 6 0 10 -4 10 -10z m-54 -15 c-3
-9 1 -18 9 -21 8 -4 12 -10 9 -16 -3 -5 -13 0 -21 11 -8 12 -11 26 -8 31 10
16 18 12 11 -5z"/>
<path d="M3034 3201 c-69 -42 -102 -129 -71 -189 l14 -30 -111 -111 -112 -112
-46 12 c-183 49 -286 -190 -126 -294 39 -24 121 -23 165 4 60 37 91 138 63
201 -10 21 -1 33 97 131 l108 109 51 -13 c85 -19 156 11 190 81 l19 40 67 0
c60 0 67 -2 73 -22 9 -29 52 -76 87 -94 62 -33 158 -3 198 60 22 37 36 96 28
118 -3 7 -7 18 -8 23 -5 22 -45 68 -74 86 -39 24 -106 25 -153 2 -21 -9 -48
-35 -64 -61 l-28 -44 -65 -1 c-58 -2 -66 0 -70 19 -22 85 -153 133 -232 85z
m83 3 c-3 -3 -12 -4 -19 -1 -8 3 -5 6 6 6 11 1 17 -2 13 -5z m3 -38 c0 -2 -7
-6 -15 -10 -8 -3 -15 -1 -15 4 0 6 7 10 15 10 8 0 15 -2 15 -4z m-80 -71 c0
-8 -5 -14 -12 -12 -6 1 -17 -8 -23 -20 l-12 -23 -11 25 c-6 14 -8 25 -3 25 5
0 12 -6 14 -12 4 -8 6 -7 6 4 1 25 41 38 41 13z m590 9 c0 -8 -19 -13 -24 -6
-3 5 1 9 9 9 8 0 15 -2 15 -3z m62 -76 c-6 -6 -12 -3 -16 7 -3 9 -2 13 4 10 6
-3 11 4 11 17 l2 23 4 -24 c3 -13 0 -28 -5 -33z m-132 -68 c0 -5 -5 -10 -11
-10 -5 0 -7 5 -4 10 3 6 8 10 11 10 2 0 4 -4 4 -10z m-900 -208 c0 -13 -12
-22 -22 -16 -10 6 -1 24 13 24 5 0 9 -4 9 -8z m25 -42 c4 -6 -6 -10 -22 -9
-25 0 -26 1 -8 9 11 5 21 9 22 9 1 1 5 -3 8 -9z m42 -12 c-3 -8 -6 -5 -6 6 -1
11 2 17 5 13 3 -3 4 -12 1 -19z m-174 -51 c-3 -5 -9 -4 -13 3 -6 9 -11 7 -19
-6 -6 -11 -11 -15 -11 -10 0 5 8 18 17 28 12 14 18 15 24 6 4 -7 5 -16 2 -21z
m191 -85 c3 -5 -1 -9 -9 -9 -8 0 -12 4 -9 9 3 4 7 8 9 8 2 0 6 -4 9 -8z"/>
<path d="M2570 3160 c-8 -5 -12 -11 -9 -14 2 -3 11 -1 19 4 8 5 12 11 9 14 -2
3 -11 1 -19 -4z"/>
<path d="M2670 3075 c-1 -11 -4 -14 -7 -7 -6 15 -43 16 -43 1 0 -5 -4 -8 -9
-4 -5 3 -12 1 -15 -4 -4 -5 -2 -12 3 -15 5 -4 12 -2 16 4 4 6 11 7 17 4 7 -4
8 -2 4 4 -4 7 -3 12 3 12 5 0 11 -6 14 -12 3 -10 7 -10 17 -1 7 6 10 17 7 25
-3 8 -6 6 -7 -7z"/>
<path d="M2696 3055 c-3 -8 -1 -15 4 -15 6 0 10 7 10 15 0 8 -2 15 -4 15 -2 0
-6 -7 -10 -15z"/>
<path d="M3060 2773 c-69 -26 -116 -106 -105 -179 7 -48 42 -97 86 -119 72
-38 179 -2 218 72 14 28 15 133 0 133 -5 0 -8 4 -5 9 9 13 -40 60 -79 77 -34
14 -87 17 -115 7z m171 -220 c13 -17 13 -17 -5 -3 -18 14 -18 13 -12 -10 6
-21 5 -22 -4 -7 -6 9 -8 22 -5 27 8 13 10 13 26 -7z"/>
<path d="M3483 2754 c-24 -14 -43 -27 -43 -30 0 -3 6 -2 13 2 6 4 0 -4 -15
-19 -20 -19 -28 -37 -29 -64 -2 -53 1 -76 12 -89 6 -7 2 -18 -11 -29 -12 -10
-18 -25 -15 -32 2 -8 0 -11 -5 -8 -6 3 -10 1 -10 -4 0 -6 -6 -11 -13 -11 -7 0
-25 -13 -40 -28 -22 -22 -24 -31 -14 -41 10 -10 9 -11 -5 -6 -12 5 -30 -7 -62
-40 -38 -41 -49 -47 -75 -43 -17 2 -33 0 -35 -6 -3 -7 -5 -6 -5 2 -2 20 -65
14 -101 -10 -18 -13 -38 -32 -44 -43 -6 -11 -14 -22 -17 -25 -3 -3 -8 -12 -11
-21 -5 -12 -20 -15 -72 -14 -36 1 -67 4 -69 6 -1 2 -10 20 -20 40 -38 74 -149
103 -217 57 -56 -39 -75 -73 -75 -136 0 -71 29 -116 93 -144 66 -29 123 -18
173 33 33 34 43 53 41 79 -1 11 142 -3 155 -15 16 -16 17 -29 2 -20 -6 4 -5
-2 2 -13 9 -14 17 -18 25 -12 6 6 14 6 19 2 4 -4 6 5 3 20 -4 19 -1 25 9 21
16 -6 18 -43 2 -43 -8 0 -9 -4 0 -13 6 -8 7 -17 3 -22 -4 -4 4 -4 18 0 24 7
24 6 5 -8 -19 -14 -17 -15 27 -22 60 -9 106 6 148 50 44 46 54 125 22 180 -12
19 -17 35 -11 35 6 0 7 5 4 10 -4 6 -3 9 2 8 12 -4 54 28 46 35 -3 4 -1 7 6 7
7 0 9 5 5 12 -4 6 -3 8 3 5 13 -8 36 17 25 28 -4 5 -2 5 5 1 7 -4 17 2 23 14
6 11 15 20 20 20 17 0 60 51 54 63 -4 7 -4 9 1 5 4 -4 14 -3 20 2 8 7 24 5 48
-5 42 -17 100 -20 127 -5 62 33 105 111 95 170 -21 118 -142 175 -242 114z
m109 -22 c-15 -2 -33 -9 -41 -15 -12 -10 -12 -9 0 10 14 24 50 34 61 18 5 -6
-4 -11 -20 -13z m69 0 c-7 -2 -18 1 -23 6 -8 8 -4 9 13 5 13 -4 18 -8 10 -11z
m29 -37 c14 -19 14 -19 -2 -6 -10 7 -18 18 -18 24 0 6 1 8 3 6 1 -2 9 -13 17
-24z m-139 -27 c11 3 12 -5 0 -12 -11 -7 -53 29 -44 38 4 4 14 -1 21 -11 7
-10 18 -17 23 -15z m-47 -25 c-9 -36 -12 -39 -25 -26 -8 8 -8 17 0 32 17 30
33 26 25 -6z m-29 -91 c-9 -9 -36 28 -29 40 4 5 13 0 21 -12 8 -12 12 -24 8
-28z m78 11 c-7 -2 -19 -2 -25 0 -7 3 -2 5 12 5 14 0 19 -2 13 -5z m140 -8
c-3 -9 -8 -14 -10 -11 -3 3 -2 9 2 15 9 16 15 13 8 -4z m-243 -19 c0 -8 -7
-16 -15 -20 -13 -4 -14 -2 -5 14 13 23 20 26 20 6z m165 -16 c-3 -5 -12 -10
-18 -10 -7 0 -6 4 3 10 19 12 23 12 15 0z m-215 -76 c0 -8 -19 -13 -24 -6 -3
5 1 9 9 9 8 0 15 -2 15 -3z m-45 -23 c-9 -8 -36 -10 -30 -2 2 4 11 8 20 8 8 0
13 -3 10 -6z m-144 -144 c-10 -9 -11 -8 -5 6 3 10 9 15 12 12 3 -3 0 -11 -7
-18z m-51 -2 c0 -2 -9 -9 -20 -15 -16 -9 -18 -8 -14 5 5 13 34 22 34 10z
m-120 -59 c0 -3 -4 -8 -10 -11 -5 -3 -10 -1 -10 4 0 6 5 11 10 11 6 0 10 -2
10 -4z m-222 -61 c-3 -3 -9 2 -12 12 -6 14 -5 15 5 6 7 -7 10 -15 7 -18z m-72
-77 c4 -7 3 -8 -4 -4 -7 4 -12 2 -12 -3 0 -6 -5 -11 -11 -11 -8 0 -8 5 1 15
15 18 17 18 26 3z"/>
<path d="M3515 2311 c-41 -10 -73 -39 -91 -80 -59 -140 76 -277 209 -212 64
31 92 73 92 143 0 64 -19 97 -75 136 -34 23 -77 27 -135 13z m96 -28 c11 -15
11 -16 -1 -5 -16 14 -34 16 -26 4 3 -5 -1 -9 -8 -9 -8 0 -12 6 -9 14 7 18 28
16 44 -4z m-121 -17 c0 -2 -7 -7 -16 -10 -8 -3 -12 -2 -9 4 6 10 25 14 25 6z
m-3 -192 c0 -7 -6 -10 -14 -7 -7 3 -13 8 -13 12 0 4 6 8 13 8 8 0 14 -6 14
-13z"/>
<path d="M3000 2063 c0 -15 18 -35 23 -27 3 5 -1 15 -9 22 -8 7 -14 9 -14 5z"/>
<path d="M1238 1568 c-22 -6 -50 -25 -68 -44 -54 -63 -33 -161 43 -197 30 -15
76 -17 336 -17 l302 0 25 -25 c29 -29 26 -58 -8 -87 -18 -16 -51 -18 -374 -18
l-354 0 0 -35 0 -35 348 0 c206 0 362 4 384 10 44 13 85 58 94 105 8 42 -19
100 -59 129 -27 20 -45 21 -346 26 -249 4 -322 8 -334 19 -23 19 -21 67 3 91
19 19 33 20 381 20 l360 0 -3 33 -3 32 -345 2 c-203 0 -360 -3 -382 -9z"/>
<path d="M2030 1345 l0 -235 35 0 35 0 0 80 0 80 345 0 344 0 3 -77 3 -78 33
-3 32 -3 0 236 0 236 -32 -3 -33 -3 -3 -117 -3 -118 -344 0 -345 0 0 120 0
120 -35 0 -35 0 0 -235z"/>
<path d="M3470 1574 c0 -4 12 -21 27 -36 l27 -28 275 0 c248 0 280 -2 317 -19
126 -57 135 -224 14 -288 -38 -20 -57 -23 -167 -23 -67 0 -123 -4 -123 -9 0
-4 10 -21 22 -36 l21 -27 116 4 c85 3 125 9 151 22 101 52 152 151 130 251
-16 70 -63 130 -129 163 l-56 27 -312 3 c-172 2 -313 0 -313 -4z"/>
<path d="M4301 1571 c-11 -7 -10 -13 5 -35 l19 -25 383 -1 383 0 -3 33 -3 32
-385 3 c-215 1 -391 -2 -399 -7z"/>
<path d="M3127 1343 l-207 -228 48 -3 c43 -3 49 -1 77 32 l30 36 223 0 c122 0
222 4 222 8 0 5 -13 20 -28 35 -28 27 -28 27 -185 27 -86 0 -157 3 -157 6 0
15 194 214 199 206 8 -13 170 -190 255 -279 63 -66 73 -73 108 -73 21 0 38 3
38 8 0 11 -400 452 -410 452 -3 0 -99 -102 -213 -227z"/>
<path d="M4386 1332 c-10 -2 -16 -14 -16 -33 l0 -29 180 0 180 0 0 30 0 29
-164 3 c-90 2 -171 2 -180 0z"/>
<path d="M4319 1163 c-48 -58 -81 -53 365 -53 l407 0 -3 33 -3 32 -376 3
c-348 2 -377 1 -390 -15z"/>
<path d="M1654 943 c-3 -10 -10 -26 -15 -35 -6 -11 -6 -18 0 -18 6 0 12 -17
14 -37 l4 -38 1 37 c1 25 7 38 20 41 16 4 16 5 0 6 -11 1 -18 9 -18 21 0 10 8
24 18 29 16 10 16 10 -1 11 -10 0 -20 -8 -23 -17z"/>
<path d="M2413 890 c0 -49 2 -63 6 -40 5 29 10 35 31 35 21 0 26 -6 31 -35 l6
-35 2 37 c1 40 -23 64 -53 52 -11 -4 -16 3 -19 28 -2 18 -4 -1 -4 -42z"/>
<path d="M3560 931 c0 -28 -3 -31 -19 -26 -13 4 -27 -1 -40 -14 -25 -25 -25
-31 -8 -55 12 -16 61 -26 72 -15 7 8 10 128 2 135 -4 4 -7 -7 -7 -25z m-5 -71
c0 -18 -6 -26 -23 -28 -24 -4 -38 18 -28 44 3 9 15 14 28 12 17 -2 23 -10 23
-28z"/>
<path d="M2840 924 c0 -20 -4 -25 -16 -20 -27 10 -54 -12 -54 -45 0 -21 6 -32
22 -38 45 -16 56 -4 60 65 2 35 0 64 -4 64 -5 0 -8 -12 -8 -26z m-5 -64 c0
-18 -6 -26 -23 -28 -24 -4 -38 18 -28 44 3 9 15 14 28 12 17 -2 23 -10 23 -28z"/>
<path d="M3993 885 c0 -38 2 -53 4 -32 2 20 2 52 0 70 -2 17 -4 1 -4 -38z"/>
<path d="M1739 918 c-3 -59 8 -98 29 -98 16 1 16 1 0 11 -10 5 -18 21 -18 34
0 17 6 25 18 25 16 1 16 1 0 11 -10 5 -15 16 -12 24 4 8 1 15 -5 15 -6 0 -12
-10 -12 -22z"/>
<path d="M4783 915 c-6 -14 -7 -25 -2 -25 5 0 9 -16 9 -35 0 -30 3 -35 23 -34
16 1 18 2 5 6 -21 5 -26 63 -5 63 8 0 9 2 1 8 -7 4 -13 15 -15 24 -3 15 -6 13
-16 -7z"/>
<path d="M1418 903 c-10 -3 -18 -13 -18 -24 0 -12 7 -19 18 -18 10 0 12 3 5 6
-20 8 -15 21 10 25 12 2 18 6 12 9 -5 3 -18 4 -27 2z"/>
<path d="M1520 890 c-23 -23 -24 -30 -7 -54 9 -12 23 -17 42 -14 27 3 30 7 30
37 0 44 -35 61 -65 31z m55 -30 c0 -30 -35 -40 -55 -15 -10 12 -10 18 0 30 20
25 55 15 55 -15z"/>
<path d="M1836 870 c6 -56 11 -60 35 -30 19 25 28 22 43 -15 6 -17 23 7 31 44
5 23 4 31 -4 27 -6 -4 -11 -16 -11 -27 0 -24 -9 -24 -26 -1 -13 16 -15 16 -28
0 -19 -25 -24 -23 -36 15 -9 30 -10 29 -4 -13z"/>
<path d="M2006 895 c-34 -35 -13 -75 41 -75 32 0 33 1 33 40 0 28 -4 40 -14
40 -8 0 -21 3 -29 6 -8 3 -22 -2 -31 -11z m58 -20 c9 -24 -4 -45 -29 -45 -25
0 -38 21 -29 45 4 8 16 15 29 15 13 0 25 -7 29 -15z"/>
<path d="M2158 902 c-14 -3 -18 -13 -17 -45 2 -34 3 -36 6 -12 2 17 12 36 20
42 19 15 15 21 -9 15z"/>
<path d="M2554 893 c-33 -33 -9 -73 43 -73 32 0 33 1 33 43 0 40 -1 42 -31 43
-17 1 -37 -5 -45 -13z m55 -17 c17 -20 2 -46 -25 -46 -26 0 -40 20 -30 45 7
19 40 20 55 1z"/>
<path d="M2703 903 c-20 -4 -23 -10 -22 -46 2 -34 3 -36 6 -12 2 17 14 38 26
47 12 10 20 17 17 16 -3 0 -15 -3 -27 -5z"/>
<path d="M3010 886 c0 -33 -18 -43 -36 -20 -13 18 -15 18 -25 2 -13 -24 -29
-23 -29 1 0 11 -5 23 -12 27 -8 5 -9 2 -5 -10 4 -10 7 -29 7 -42 0 -29 26 -32
35 -4 8 26 20 25 39 -2 9 -12 17 -20 20 -17 11 11 23 79 15 85 -5 3 -9 -6 -9
-20z"/>
<path d="M3088 899 c-24 -13 -24 -65 0 -78 9 -5 29 -7 43 -4 23 4 27 10 27 45
1 30 -3 38 -13 34 -8 -3 -17 -1 -20 4 -8 12 -15 12 -37 -1z m50 -43 c-2 -15
-10 -21 -28 -21 -31 0 -40 33 -14 52 22 16 46 -1 42 -31z"/>
<path d="M3228 902 c-14 -3 -18 -13 -17 -45 2 -34 3 -36 6 -12 2 17 12 36 20
42 19 15 15 21 -9 15z"/>
<path d="M3637 892 c-22 -24 -21 -38 3 -62 12 -12 26 -17 37 -13 15 6 15 8 -6
13 -40 9 -36 28 6 32 l38 3 -22 23 c-28 27 -35 27 -56 4z m48 -12 c4 -6 -5
-10 -19 -10 -14 0 -26 5 -26 10 0 6 9 10 19 10 11 0 23 -4 26 -10z"/>
<path d="M4068 899 c-21 -12 -24 -49 -6 -67 21 -21 57 -14 70 14 11 23 10 29
-11 45 -27 22 -30 22 -53 8z m52 -24 c10 -12 10 -18 0 -30 -18 -22 -48 -18
-55 6 -11 35 31 53 55 24z"/>
<path d="M4205 903 c-18 -3 -20 -11 -18 -69 1 -66 13 -105 13 -46 0 18 5 32
10 32 6 0 6 7 -1 19 -17 26 -4 53 23 49 29 -4 36 -37 12 -56 -18 -13 -18 -14
1 -10 27 4 34 57 9 75 -10 7 -20 12 -23 12 -3 -1 -15 -4 -26 -6z"/>
<path d="M4338 903 c-14 -3 -18 -14 -17 -46 1 -43 3 -42 13 6 5 22 12 28 29
25 16 -2 23 -12 28 -38 l6 -35 4 35 c3 30 8 35 29 35 21 0 26 -6 31 -35 l6
-35 2 37 c1 43 -28 69 -54 48 -10 -8 -19 -8 -34 -1 -11 6 -21 10 -23 10 -2 -1
-11 -3 -20 -6z"/>
<path d="M4668 903 c-14 -3 -18 -14 -17 -46 l2 -42 6 35 c5 29 10 35 31 35 21
0 26 -6 31 -35 l6 -35 2 37 c1 28 -4 40 -18 48 -11 5 -21 9 -23 9 -2 -1 -11
-3 -20 -6z"/>
<path d="M2227 893 c-4 -3 -7 -19 -7 -34 0 -31 28 -53 50 -39 10 6 7 9 -10 12
-40 5 -36 28 5 28 33 0 35 2 25 20 -10 19 -49 27 -63 13z m48 -13 c4 -6 -5
-10 -20 -10 -15 0 -24 4 -20 10 3 6 12 10 20 10 8 0 17 -4 20 -10z"/>
<path d="M3301 886 c-17 -20 -11 -45 14 -62 13 -9 25 -10 35 -4 12 8 9 10 -11
10 -15 0 -29 7 -33 15 -4 12 3 15 30 15 28 0 35 4 32 18 -4 22 -51 28 -67 8z
m54 -6 c4 -6 -5 -10 -19 -10 -14 0 -26 5 -26 10 0 6 9 10 19 10 11 0 23 -4 26
-10z"/>
<path d="M3755 864 c8 -20 15 -38 15 -40 0 -2 4 -4 10 -4 11 0 43 70 36 78 -3
2 -12 -11 -20 -29 l-14 -34 -13 33 c-7 17 -17 32 -21 32 -5 0 -1 -16 7 -36z"/>
<path d="M3865 880 c-13 -42 22 -80 56 -60 8 6 3 9 -16 12 -43 5 -44 28 -1 28
38 0 44 8 24 28 -19 19 -56 14 -63 -8z m60 0 c4 -6 -5 -10 -19 -10 -14 0 -26
5 -26 10 0 6 9 10 19 10 11 0 23 -4 26 -10z"/>
<path d="M4527 893 c-4 -3 -7 -19 -7 -34 0 -35 31 -56 58 -39 15 10 15 10 -3
8 -11 -1 -26 1 -32 5 -24 15 -13 27 22 27 23 0 35 5 35 14 0 21 -56 36 -73 19z
m53 -13 c0 -5 -9 -10 -20 -10 -11 0 -20 5 -20 10 0 6 9 10 20 10 11 0 20 -4
20 -10z"/>
<path d="M1446 846 c6 -16 4 -18 -19 -14 -15 3 -27 1 -27 -3 0 -13 48 -11 56
2 3 6 1 16 -5 22 -9 9 -10 7 -5 -7z"/>
</g>
</svg>
